<?xml version="1.0" encoding="UTF-8" standalone="no"?><!-- Generator: Gravit.io -->
<svg xmlns="http://www.w3.org/2000/svg"
    xmlns:xlink="http://www.w3.org/1999/xlink" style="isolation:isolate" viewBox="157 16.333 231 282.333" width="231pt" height="282.333pt">
    <defs>
        <clipPath id="_clipPath_YfUx4zsQ5HnWmZz74lLclcEw2Qyya8hj">
            <rect x="157" y="16.333" width="231" height="282.333"/>
        </clipPath>
    </defs>
    <g clip-path="url(#_clipPath_YfUx4zsQ5HnWmZz74lLclcEw2Qyya8hj)">
        <path d=" M 208.333 106.167 L 208.333 151.083 L 157 189.583 L 157 260.167 L 208.333 260.167 C 208.333 274.342 219.825 285.833 234 285.833 L 259.667 285.833 L 259.667 298.667 L 285.333 298.667 L 285.333 285.833 L 311 285.833 C 325.176 285.833 336.667 274.342 336.667 260.167 L 388 260.167 L 388 189.583 L 336.667 151.083 L 336.667 106.167 C 336.667 65.664 312.109 16.333 272.5 16.333 C 232.891 16.333 208.333 65.664 208.333 106.167 Z  M 285.333 260.167 L 311 260.167 L 311 131.833 L 311 106.167 C 311 78.026 293.065 42 272.5 42 C 251.935 42 234 78.026 234 106.167 L 234 131.833 L 234 260.167 L 259.667 260.167 L 259.667 183.167 L 285.333 183.167 L 285.333 260.167 Z  M 182.667 202.417 L 208.333 183.167 L 208.333 234.5 L 182.667 234.5 L 182.667 202.417 Z  M 336.667 234.5 L 336.667 183.167 L 362.333 202.417 L 362.333 234.5 L 336.667 234.5 Z  M 272.5 144.667 C 258.324 144.667 246.833 133.176 246.833 119 C 246.833 104.825 258.324 93.333 272.5 93.333 C 286.676 93.333 298.167 104.825 298.167 119 C 298.167 133.176 286.676 144.667 272.5 144.667 Z " fill-rule="evenodd" fill="rgb(162,162,162)"/>
    </g>
</svg>